<svg width="25" height="25" viewBox="0 0 25 25" fill="none" xmlns="http://www.w3.org/2000/svg">
<path d="M12.9443 18.7919C13.3161 18.7919 13.635 18.6621 13.901 18.4025C14.1671 18.1428 14.3097 17.8239 14.3289 17.4457H11.5597C11.5789 17.8239 11.7216 18.1428 11.9876 18.4025C12.2536 18.6621 12.5725 18.7919 12.9443 18.7919ZM8.32896 16.1765H17.5597V14.5611H16.5597V11.9034C16.5597 10.9701 16.3164 10.1195 15.8299 9.35151C15.3433 8.58358 14.6635 8.09576 13.7905 7.88806V6.36884H12.0982V7.88806C11.2251 8.09576 10.5453 8.58038 10.0588 9.34191C9.57223 10.1034 9.32896 10.9509 9.32896 11.8842V14.5611H8.32896V16.1765ZM10.9443 14.5611V11.4842C10.9443 10.9342 11.1401 10.4634 11.5318 10.0717C11.9235 9.68002 12.3943 9.48418 12.9443 9.48418C13.4943 9.48418 13.9651 9.68002 14.3568 10.0717C14.7485 10.4634 14.9443 10.9342 14.9443 11.4842V14.5611H10.9443ZM12.946 22.0996C11.6321 22.0996 10.397 21.8502 9.24089 21.3516C8.08474 20.8529 7.07905 20.1761 6.22384 19.3213C5.3686 18.4665 4.69154 17.4612 4.19266 16.3056C3.69378 15.15 3.44434 13.9152 3.44434 12.6013C3.44434 11.2873 3.69367 10.0523 4.19234 8.89616C4.691 7.74001 5.36775 6.73433 6.22259 5.87911C7.07744 5.02388 8.08268 4.34682 9.23831 3.84794C10.3939 3.34905 11.6287 3.09961 12.9426 3.09961C14.2566 3.09961 15.4916 3.34894 16.6477 3.84761C17.8039 4.34628 18.8096 5.02303 19.6648 5.87786C20.52 6.73271 21.1971 7.73795 21.696 8.89359C22.1948 10.0492 22.4443 11.284 22.4443 12.5979C22.4443 13.9118 22.195 15.1469 21.6963 16.303C21.1976 17.4592 20.5209 18.4648 19.666 19.3201C18.8112 20.1753 17.8059 20.8524 16.6503 21.3512C15.4947 21.8501 14.2599 22.0996 12.946 22.0996ZM12.9443 20.5996C15.1776 20.5996 17.0693 19.8246 18.6193 18.2746C20.1693 16.7246 20.9443 14.8329 20.9443 12.5996C20.9443 10.3663 20.1693 8.47459 18.6193 6.92459C17.0693 5.37459 15.1776 4.59959 12.9443 4.59959C10.711 4.59959 8.81931 5.37459 7.26931 6.92459C5.71931 8.47459 4.94431 10.3663 4.94431 12.5996C4.94431 14.8329 5.71931 16.7246 7.26931 18.2746C8.81931 19.8246 10.711 20.5996 12.9443 20.5996Z" fill="white"/>
</svg>
