<svg width="28" height="29" viewBox="0 0 28 29" fill="none" xmlns="http://www.w3.org/2000/svg">
<path d="M13.9994 26.7499C11.7244 26.7499 9.65993 26.1867 7.80596 25.0605C5.95201 23.9342 4.4978 22.425 3.44333 20.5329V24.0127H1.69336V17.5961H8.11V19.346H4.79617C5.63977 21.0452 6.88646 22.4123 8.53624 23.4474C10.186 24.4824 12.0071 24.9999 13.9994 24.9999C15.4278 24.9999 16.7676 24.7359 18.0188 24.2079C19.27 23.68 20.3652 22.9594 21.3045 22.0463C22.2439 21.1331 22.9981 20.0547 23.5672 18.811C24.1363 17.5673 24.4433 16.2275 24.4882 14.7916H26.2382C26.2008 16.4489 25.8541 18.0029 25.1983 19.4538C24.5424 20.9046 23.6629 22.1723 22.5598 23.2566C21.4567 24.341 20.1704 25.1944 18.7009 25.8166C17.2313 26.4388 15.6642 26.7499 13.9994 26.7499ZM1.76068 14.2083C1.81304 12.5136 2.1709 10.939 2.83424 9.48441C3.49759 8.02983 4.38455 6.76409 5.49512 5.68718C6.60571 4.61026 7.89016 3.76817 9.34847 3.1609C10.8068 2.55363 12.3571 2.25 13.9994 2.25C16.252 2.25 18.3165 2.81502 20.1929 3.94505C22.0693 5.07508 23.5235 6.59738 24.5555 8.51194V4.98723H26.3055V11.4038H19.8888V9.6539H23.2027C22.3815 7.98463 21.1442 6.625 19.4906 5.575C17.8371 4.52496 16.0067 3.99994 13.9994 3.99994C12.6009 3.99994 11.2779 4.26019 10.0305 4.7807C8.78309 5.30121 7.68597 6.0143 6.73916 6.91996C5.79238 7.82563 5.02881 8.9003 4.44847 10.144C3.86813 11.3877 3.55552 12.7424 3.51065 14.2082L1.76068 14.2083Z" fill="white"/>
</svg>
