<svg width="139" height="26" viewBox="0 0 139 26" fill="none" xmlns="http://www.w3.org/2000/svg">
<path d="M133.911 8.26654V12.3665H122.178V13.9332H136.011V18.0999H128.978V20.8665H138.945V25.1999H114.145V20.8665H124.111V18.0999H117.478V2.5332H135.145V6.7332H122.178V8.26654H133.911Z" fill="white"/>
<path d="M112.601 25.2003H87.8008V20.8669H97.7675V17.2336H90.5008V13.1003H93.2674V7.26693H90.5008V2.93359H109.934V7.26693H107.167V13.1003H109.934V17.2336H102.634V20.8669H112.601V25.2003ZM102.634 13.1003V7.26693H97.8008V13.1003H102.634Z" fill="white"/>
<path d="M69.1404 17.5C68.0293 17.5 66.9848 17.3 66.007 16.9C65.0293 16.4778 64.1848 15.9111 63.4737 15.2C62.7181 14.5111 62.1293 13.7 61.707 12.7667C61.2848 11.8111 61.0737 10.7889 61.0737 9.7C61.0737 8.61111 61.2848 7.6 61.707 6.66667C62.1293 5.71111 62.7181 4.87778 63.4737 4.16667C64.1848 3.45556 65.0293 2.9 66.007 2.5C66.9848 2.07778 68.0293 1.86667 69.1404 1.86667C70.2515 1.86667 71.2848 2.07778 72.2404 2.5C73.2181 2.9 74.0737 3.45556 74.807 4.16667C75.5181 4.87778 76.0848 5.71111 76.507 6.66667C76.9515 7.6 77.1737 8.61111 77.1737 9.7C77.1737 10.7889 76.9515 11.8111 76.507 12.7667C76.0848 13.7 75.5181 14.5111 74.807 15.2C74.0737 15.9111 73.2181 16.4778 72.2404 16.9C71.2848 17.3 70.2515 17.5 69.1404 17.5ZM69.1404 6.2C68.1848 6.2 67.3737 6.54445 66.707 7.23334C66.0626 7.9 65.7404 8.72223 65.7404 9.7C65.7404 10.6778 66.0626 11.5 66.707 12.1667C67.3737 12.8333 68.1848 13.1667 69.1404 13.1667C69.5848 13.1667 70.007 13.0889 70.407 12.9333C70.8293 12.7556 71.1959 12.5 71.507 12.1667C71.8181 11.8556 72.0626 11.4889 72.2404 11.0667C72.4181 10.6222 72.507 10.1667 72.507 9.7C72.507 9.23334 72.4181 8.78889 72.2404 8.36667C72.0626 7.92222 71.8181 7.53334 71.507 7.2C71.1959 6.88889 70.8293 6.64445 70.407 6.46667C70.007 6.28889 69.5848 6.2 69.1404 6.2ZM85.507 25.2H80.7404V0H85.507V25.2ZM79.4737 20.3667V24.6H60.207V20.3667H79.4737Z" fill="#EFFF04"/>
<path d="M35.9201 9.73334C35.4312 9.73334 34.9645 9.84445 34.5201 10.0667C34.0756 10.2889 33.6867 10.6 33.3534 11C33.0201 11.3778 32.7534 11.8333 32.5534 12.3667C32.3534 12.9 32.2534 13.4556 32.2534 14.0333C32.2534 14.6333 32.3534 15.2 32.5534 15.7333C32.7534 16.2444 33.0201 16.6889 33.3534 17.0667C33.6867 17.4667 34.0756 17.7778 34.5201 18C34.9645 18.2222 35.4312 18.3333 35.9201 18.3333C36.4312 18.3333 36.9089 18.2222 37.3534 18C37.7978 17.7778 38.1867 17.4667 38.5201 17.0667C38.8534 16.6889 39.1089 16.2444 39.2867 15.7333C39.4867 15.2 39.5867 14.6333 39.5867 14.0333C39.5867 13.4556 39.4867 12.9 39.2867 12.3667C39.1089 11.8333 38.8534 11.3778 38.5201 11C38.1867 10.6 37.7978 10.2889 37.3534 10.0667C36.9089 9.84445 36.4312 9.73334 35.9201 9.73334ZM35.9201 22.9C34.8089 22.9 33.7645 22.6778 32.7867 22.2333C31.8312 21.7667 30.9867 21.1333 30.2534 20.3333C29.5201 19.5111 28.9423 18.5667 28.5201 17.5C28.0978 16.4111 27.8867 15.2556 27.8867 14.0333C27.8867 12.8111 28.0978 11.6667 28.5201 10.6C28.9423 9.53334 29.5201 8.58889 30.2534 7.76667C30.9867 6.96667 31.8312 6.34445 32.7867 5.9C33.7645 5.43333 34.8089 5.2 35.9201 5.2C37.0312 5.2 38.0756 5.43333 39.0534 5.9C40.0312 6.34445 40.8756 6.96667 41.5867 7.76667C42.3201 8.58889 42.8867 9.53334 43.2867 10.6C43.7089 11.6667 43.9201 12.8111 43.9201 14.0333C43.9201 15.2556 43.7089 16.4111 43.2867 17.5C42.8867 18.5667 42.3201 19.5111 41.5867 20.3333C40.8756 21.1333 40.0312 21.7667 39.0534 22.2333C38.0756 22.6778 37.0312 22.9 35.9201 22.9ZM52.3867 14.4333H49.6867V25.2H45.0534V1.6H49.6867V10.2H52.3867V0H57.0534V25.2H52.3867V14.4333Z" fill="white"/>
<path d="M3.26667 17.9333L0 14.8333L6.1 8.26667H1.26667V4.53333H6.93334V0.333333H11.7667V4.53333H17.4333V8.26667H12.6L18.6667 14.8333L15.4333 17.9333L9.33334 10.1L3.26667 17.9333ZM25.6 25.2H20.8333V0H25.6V25.2ZM19.5333 20.3667V24.6H0.3V20.3667H6.76667V15.1667H11.6333V20.3667H19.5333Z" fill="white"/>
</svg>
