<svg width="230" height="230" viewBox="0 0 230 230" fill="none" xmlns="http://www.w3.org/2000/svg">
<path d="M143.728 115.169L136.923 119.098L134.959 115.695L152.318 105.673L154.282 109.076L147.512 112.984L159.178 133.19L155.394 135.375L143.728 115.169Z" fill="#FF483D"/>
<path d="M140.289 130.672C142.2 133.982 142.898 136.928 142.382 139.509C141.853 142.067 140.177 144.161 137.353 145.792C134.483 147.449 131.808 147.867 129.328 147.046C126.835 146.202 124.633 144.125 122.722 140.815L114.885 127.24L118.669 125.055L126.266 138.213C126.867 139.255 127.503 140.169 128.172 140.955C128.842 141.741 129.548 142.321 130.289 142.696C131.033 143.13 131.841 143.327 132.713 143.286C133.584 143.246 134.483 142.959 135.409 142.424C136.335 141.89 137.021 141.262 137.469 140.54C137.917 139.819 138.162 139.014 138.204 138.125C138.204 137.323 138.031 136.436 137.685 135.463C137.362 134.476 136.9 133.462 136.299 132.421L128.702 119.263L132.452 117.098L140.289 130.672Z" fill="#FF483D"/>
<path d="M100.175 151.239C100.803 152.327 101.545 153.318 102.401 154.213C103.28 155.094 104.219 155.786 105.219 156.289C106.266 156.765 107.357 156.999 108.494 156.99C109.655 156.968 110.825 156.617 112.005 155.935C113.186 155.254 114.064 154.423 114.639 153.442C115.238 152.449 115.582 151.386 115.669 150.255C115.757 149.125 115.639 147.958 115.316 146.756C115.015 145.541 114.551 144.39 113.923 143.302C113.282 142.191 112.517 141.213 111.628 140.368C110.762 139.51 109.793 138.82 108.72 138.298C107.7 137.868 106.617 137.676 105.47 137.721C104.346 137.752 103.217 138.095 102.083 138.75C100.926 139.418 100.053 140.231 99.4638 141.188C98.8747 142.146 98.5113 143.173 98.3737 144.271C98.2895 145.462 98.4025 146.646 98.7127 147.825C99.0461 148.99 99.5334 150.128 100.175 151.239ZM96.2024 153.579C95.2002 151.843 94.5212 150.106 94.1653 148.367C93.8327 146.615 93.8286 144.951 94.1531 143.375C94.441 141.789 95.0825 140.308 96.0775 138.931C97.0591 137.531 98.4063 136.337 100.119 135.348C101.832 134.359 103.54 133.789 105.243 133.639C106.933 133.466 108.536 133.651 110.054 134.195C111.581 134.702 113.008 135.544 114.336 136.721C115.664 137.899 116.829 139.356 117.831 141.092C118.874 142.897 119.58 144.681 119.949 146.442C120.328 148.168 120.362 149.83 120.05 151.429C119.726 153.005 119.06 154.47 118.051 155.824C117.03 157.154 115.662 158.314 113.95 159.303C112.214 160.305 110.514 160.916 108.851 161.136C107.175 161.332 105.584 161.17 104.08 160.65C102.563 160.106 101.129 159.252 99.7777 158.088C98.4365 156.887 97.2447 155.384 96.2024 153.579Z" fill="#FF483D"/>
<path d="M115.736 71.2461L122.506 67.3375C124.196 66.362 125.9 65.7328 127.619 65.45C129.362 65.1539 131.069 65.1711 132.741 65.5018C134.367 65.8592 135.895 66.5817 137.326 67.6693C138.766 68.7203 140.033 70.1948 141.129 72.0927C142.319 74.1526 143.07 76.0951 143.383 77.9203C143.696 79.7454 143.624 81.438 143.167 82.9981C142.7 84.5947 141.878 86.0569 140.7 87.3848C139.509 88.6896 137.988 89.8764 136.136 90.9455L129.366 94.8541L115.736 71.2461ZM131.241 89.2816L134.157 87.5979C136.796 86.0745 138.399 84.2541 138.966 82.1367C139.543 79.9827 138.983 77.436 137.286 74.4966C136.471 73.0847 135.568 72.0014 134.577 71.2467C133.595 70.4555 132.55 69.9016 131.442 69.585C130.383 69.3013 129.272 69.2482 128.11 69.4258C126.957 69.5668 125.859 69.938 124.818 70.5394L121.52 72.4436L131.241 89.2816Z" fill="#FF483D"/>
<path d="M100.258 80.1367L104.042 77.9519L115.748 98.227L125.295 92.7148L127.24 96.0825L113.908 103.779L100.258 80.1367Z" fill="#FF483D"/>
<path d="M85.5147 104.155C86.1428 105.243 86.8847 106.234 87.7407 107.129C88.6197 108.01 89.5593 108.702 90.5593 109.205C91.6057 109.681 92.6973 109.915 93.8343 109.906C94.9944 109.884 96.1647 109.533 97.3451 108.851C98.5255 108.17 99.4036 107.339 99.9793 106.358C100.578 105.365 100.922 104.302 101.009 103.171C101.097 102.041 100.979 100.874 100.656 99.6724C100.355 98.4572 99.891 97.3057 99.2629 96.2178C98.6215 95.1069 97.8563 94.1291 96.9675 93.2844C96.1018 92.4264 95.1324 91.7362 94.0594 91.2139C93.0398 90.7842 91.9566 90.5918 90.8098 90.6367C89.6862 90.6682 88.5573 91.0113 87.4232 91.6661C86.2659 92.3342 85.3928 93.147 84.8036 94.1043C84.2145 95.0616 83.8512 96.0892 83.7135 97.1871C83.6293 98.3775 83.7423 99.5621 84.0525 100.741C84.3859 101.906 84.8733 103.044 85.5147 104.155ZM81.5422 106.495C80.54 104.759 79.861 103.022 79.5052 101.283C79.1725 99.5311 79.1684 97.867 79.4929 96.291C79.7809 94.7051 80.4223 93.2238 81.4173 91.847C82.3989 90.447 83.7461 89.2526 85.4589 88.2638C87.1716 87.2749 88.8796 86.7054 90.5828 86.5553C92.2726 86.382 93.8762 86.5672 95.3936 87.1107C96.9207 87.6177 98.3482 88.46 99.6761 89.6375C101.004 90.815 102.169 92.2717 103.171 94.0076C104.214 95.8129 104.919 97.5965 105.289 99.3584C105.667 101.084 105.701 102.746 105.39 104.345C105.066 105.921 104.399 107.386 103.391 108.74C102.369 110.07 101.002 111.23 99.2894 112.219C97.5535 113.221 95.854 113.832 94.1909 114.052C92.5144 114.248 90.9242 114.086 89.4202 113.566C87.9028 113.022 86.4686 112.168 85.1176 111.004C83.7763 109.803 82.5845 108.3 81.5422 106.495Z" fill="#FF483D"/>
<path d="M71.2266 97.638C71.5046 98.2799 71.7644 98.9169 72.0059 99.549C72.2473 100.181 72.5022 100.836 72.7704 101.515C72.1775 101.61 71.6624 101.707 71.2253 101.805C70.7979 101.867 70.3839 101.951 69.9833 102.059C69.5595 102.18 69.1674 102.33 68.8068 102.507C68.4329 102.661 68.0377 102.858 67.6211 103.099C67.0656 103.42 66.5947 103.753 66.2084 104.1C65.8319 104.41 65.5101 104.734 65.2431 105.074C65.0563 105.552 64.9474 106.031 64.9164 106.512C64.9085 106.98 65.0716 107.503 65.4057 108.081C65.713 108.614 66.0711 108.993 66.4798 109.22C66.8983 109.41 67.3565 109.563 67.8542 109.676C68.3618 109.754 68.9089 109.793 69.4956 109.793C70.069 109.771 70.7119 109.708 71.4241 109.606L71.4041 109.571C72.2624 109.508 73.1705 109.477 74.1285 109.479C75.0964 109.445 76.0531 109.525 76.9987 109.72C77.8883 109.978 78.7569 110.387 79.6047 110.947C80.4392 111.483 81.1237 112.215 81.6582 113.14C82.3931 114.413 82.783 115.623 82.8279 116.77C82.8594 117.894 82.6354 118.949 82.1558 119.935C81.6932 121.005 81.003 121.974 80.0853 122.844C79.1774 123.676 78.1217 124.44 76.9182 125.135C76.0849 125.616 75.1867 126.011 74.2234 126.321C73.2468 126.607 72.2617 126.851 71.2681 127.055C70.9901 126.413 70.7121 125.771 70.4341 125.129C70.1793 124.474 69.8964 123.85 69.5854 123.258C69.9994 123.174 70.4432 123.087 70.9169 122.999C71.4003 122.874 71.9069 122.736 72.4366 122.584C72.9663 122.433 73.496 122.281 74.0258 122.13C74.5421 121.955 74.997 121.754 75.3905 121.527C75.9691 121.193 76.4498 120.823 76.8325 120.417C77.2152 120.01 77.5481 119.571 77.8311 119.099C78.1007 118.604 78.2425 118.075 78.2566 117.511C78.2573 116.925 78.0639 116.296 77.6764 115.624C77.1552 114.722 76.5162 114.149 75.7593 113.907C75.0024 113.666 74.1285 113.568 73.1376 113.616C72.143 113.604 71.0808 113.661 69.951 113.789C68.831 113.88 67.7719 113.89 66.7738 113.818C65.7124 113.69 64.7182 113.385 63.7912 112.902C62.8508 112.395 62.0933 111.645 61.5187 110.649C60.9174 109.608 60.5796 108.568 60.5054 107.531C60.4543 106.481 60.6174 105.507 60.9946 104.61C61.3914 103.64 61.9725 102.749 62.738 101.937C63.5034 101.125 64.43 100.405 65.5179 99.7767C66.3048 99.3224 67.1964 98.9157 68.1926 98.5565C69.1985 98.1609 70.2099 97.8547 71.2266 97.638Z" fill="#FF483D"/>
<path fill-rule="evenodd" clip-rule="evenodd" d="M154.587 183.567C192.456 161.704 205.431 113.281 183.567 75.4123C161.704 37.5436 113.281 24.5688 75.4126 46.4323C37.5439 68.2958 24.5691 116.718 46.4326 154.587C68.2961 192.456 116.719 205.431 154.587 183.567ZM157.093 187.907C197.358 164.66 211.154 113.172 187.907 72.9068C164.66 32.6413 113.173 18.8453 72.9071 42.0926C32.6416 65.3399 18.8456 116.827 42.0929 157.093C65.3402 197.358 116.827 211.154 157.093 187.907Z" fill="#FF483D"/>
</svg>
