<svg width="20" height="20" viewBox="0 0 20 20" fill="none" xmlns="http://www.w3.org/2000/svg">
<path d="M8.99998 16C10.9333 16 12.5833 15.3192 13.95 13.9577C15.3166 12.5961 16 10.9436 16 8.99998C16 7.06664 15.3166 5.41664 13.95 4.04998C12.5833 2.68331 10.9333 1.99998 8.99998 1.99998C7.05639 1.99998 5.40383 2.68331 4.04228 4.04998C2.68074 5.41664 1.99998 7.06664 1.99998 8.99998C1.99998 10.9436 2.68074 12.5961 4.04228 13.9577C5.40383 15.3192 7.05639 16 8.99998 16ZM8.99998 17.5C7.82049 17.5 6.71537 17.2769 5.6846 16.8307C4.65383 16.3846 3.75512 15.7782 2.98845 15.0115C2.2218 14.2448 1.6154 13.3461 1.16925 12.3154C0.723083 11.2846 0.5 10.1795 0.5 8.99998C0.5 7.83074 0.723083 6.73075 1.16925 5.7C1.6154 4.66923 2.2218 3.76795 2.98845 2.99615C3.75512 2.22437 4.65383 1.6154 5.6846 1.16925C6.71537 0.723084 7.82049 0.5 8.99998 0.5C10.1692 0.5 11.2692 0.723084 12.3 1.16925C13.3307 1.6154 14.232 2.22437 15.0038 2.99615C15.7756 3.76795 16.3846 4.66923 16.8307 5.7C17.2769 6.73075 17.5 7.83074 17.5 8.99998C17.5 10.041 17.3233 11.0237 16.9701 11.9481C16.6169 12.8724 16.1288 13.7102 15.5057 14.4615L19.5 18.4557L18.4404 19.5L14.4461 15.5211C13.6948 16.1442 12.857 16.6297 11.9327 16.9778C11.0083 17.3259 10.0307 17.5 8.99998 17.5Z" fill="white"/>
</svg>
