<svg width="24" height="24" viewBox="0 0 24 24" fill="none" xmlns="http://www.w3.org/2000/svg">
<path d="M15.7726 12.9739L14.6496 11.8509C14.7996 11.0227 14.5634 10.2781 13.9409 9.61725C13.3185 8.95635 12.5547 8.7009 11.6496 8.8509L10.5265 7.72785C10.7522 7.62656 10.9836 7.55061 11.2208 7.49997C11.4579 7.44932 11.7175 7.424 11.9996 7.424C13.1342 7.424 14.0973 7.81983 14.889 8.6115C15.6807 9.40316 16.0765 10.3663 16.0765 11.5009C16.0765 11.7829 16.0512 12.0458 16.0005 12.2893C15.9499 12.5329 15.8739 12.7611 15.7726 12.9739ZM18.9534 16.0855L17.8496 15.0509C18.4829 14.5676 19.0454 14.0384 19.5371 13.4634C20.0288 12.8884 20.4496 12.2342 20.7996 11.5009C19.9663 9.81756 18.7704 8.48006 17.2121 7.4884C15.6538 6.49673 13.9163 6.0009 11.9996 6.0009C11.5163 6.0009 11.0413 6.03423 10.5746 6.1009C10.1079 6.16756 9.64959 6.26756 9.19959 6.4009L8.03424 5.23555C8.66629 4.98426 9.31179 4.79901 9.97076 4.67977C10.6297 4.56054 11.306 4.50092 11.9996 4.50092C14.3432 4.50092 16.4566 5.14707 18.3399 6.43937C20.2233 7.73169 21.597 9.41886 22.4611 11.5009C22.0906 12.3945 21.612 13.2284 21.0255 14.0028C20.439 14.7771 19.7483 15.4714 18.9534 16.0855ZM19.7611 21.8701L15.715 17.8547C15.2022 18.0444 14.6339 18.1996 14.0102 18.3201C13.3865 18.4406 12.7163 18.5009 11.9996 18.5009C9.6496 18.5009 7.53615 17.8547 5.65924 16.5624C3.78232 15.2701 2.4086 13.5829 1.53809 11.5009C1.90732 10.6176 2.38424 9.79352 2.96886 9.02877C3.55348 8.26404 4.19707 7.60091 4.89964 7.03937L2.13039 4.23937L3.18424 3.18555L20.8149 20.8162L19.7611 21.8701ZM5.95346 8.09317C5.42526 8.51369 4.91148 9.01915 4.41211 9.60955C3.91274 10.1999 3.50857 10.8304 3.19959 11.5009C4.03292 13.1842 5.22875 14.5217 6.78709 15.5134C8.34542 16.5051 10.0829 17.0009 11.9996 17.0009C12.4547 17.0009 12.9079 16.9624 13.3592 16.8855C13.8105 16.8086 14.1932 16.7291 14.5073 16.647L13.2419 15.3509C13.0714 15.4201 12.874 15.4752 12.6496 15.5162C12.4252 15.5573 12.2086 15.5778 11.9996 15.5778C10.865 15.5778 9.90185 15.182 9.11019 14.3903C8.31852 13.5986 7.92269 12.6355 7.92269 11.5009C7.92269 11.2983 7.9432 11.0865 7.98424 10.8653C8.02527 10.6442 8.08039 10.4419 8.14961 10.2586L5.95346 8.09317Z" fill="white"/>
</svg>

